# AST/ASF file generated using VICON BodyLanguage
# -----------------------------------------------
:version 1.10
:name VICON
:units
  mass 1.0
  length 0.45
  angle deg
:documentation
   .ast/.asf automatically generated from VICON data using
   VICON BodyBuilder and BodyLanguage model FoxedUp or BRILLIANT.MOD
:root
   order TX TY TZ RX RY RZ
   axis XYZ
   position 0 0 0  
   orientation 0 0 0 
:bonedata
  begin
     id 1 
     name lhipjoint
     direction 0.645422 -0.672597 0.361999 
     length 2.39934 
     axis 0 0 0  XYZ
  end
  begin
     id 2 
     name lfemur
     direction 0.34202 -0.939693 0  
     length 6.58112  
     axis 0 0 20  XYZ
    dof rx ry rz
    limits (-160.0 20.0)
           (-70.0 70.0)
           (-60.0 70.0)
  end
  begin
     id 3 
     name ltibia
     direction 0.34202 -0.939693 0   
     length 7.02673   
     axis 0 0 20   XYZ
    dof rx
    limits (-10.0 170.0)
  end
  begin
     id 4 
     name lfoot
     direction 0.0835106 -0.229444 0.969733   
     length 2.08772   
     axis -90 7.62852e-016 20   XYZ
    dof rx rz
    limits (-45.0 90.0)
           (-70.0 20.0)
  end
  begin
     id 5 
     name ltoes
     direction 1.5358e-011 -4.21925e-011 1   
     length 1.04844   
     axis -90 7.62852e-016 20   XYZ
    dof rx
    limits (-90.0 20.0)
  end
  begin
     id 6 
     name rhipjoint
     direction -0.644959 -0.672941 0.362185   
     length 2.39812  
     axis 0 0 0  XYZ 
  end
  begin
     id 7 
     name rfemur
     direction -0.34202 -0.939693 0   
     length 6.67015   
     axis 0 0 -20   XYZ
    dof rx ry rz
    limits (-160.0 20.0)
           (-70.0 70.0)
           (-70.0 60.0)
  end
  begin
     id 8 
     name rtibia
     direction -0.34202 -0.939693 0   
     length 7.35735   
     axis 0 0 -20   XYZ
    dof rx
    limits (-10.0 170.0)
 end
 begin
     id 9 
     name rfoot
     direction -0.0670769 -0.184292 0.98058   
     length 2.25469  
     axis -90 -7.62852e-016 -20   XYZ
    dof rx rz
    limits (-45.0 90.0)
           (-20.0 70.0)
  end
  begin
     id 10 
     name rtoes
     direction -1.53575e-011 -4.21908e-011 1   
     length 1.13399   
     axis -90 -7.62852e-016 -20   XYZ
    dof rx
    limits (-90.0 20.0)
  end
  begin
     id 11 
     name lowerback
     direction -0.0188328 0.993434 -0.112847   
     length 2.27656   
     axis 0 0 0   XYZ
    dof rx ry rz
    limits (-20.0 45.0)
           (-30.0 30.0)
           (-30.0 30.0)
  end
  begin
     id 12 
     name upperback
     direction 0.00983139 0.998968 -0.04435   
     length 2.28631   
     axis 0 0 0   XYZ
    dof rx ry rz
    limits (-20.0 45.0)
           (-30.0 30.0)
           (-30.0 30.0)
  end
  begin
     id 13 
     name thorax
     direction 0.0177718 0.999807 0.00833073   
     length 2.30999   
     axis 0 0 0   XYZ
    dof rx ry rz
    limits (-20.0 45.0)
           (-30.0 30.0)
           (-30.0 30.0)
  end
  begin
     id 14 
     name lowerneck
     direction -0.0835025 0.993181 0.0813558   
     length 1.39447   
     axis 0 0 0   XYZ
    dof rx ry rz
    limits (-20.0 45.0)
           (-30.0 30.0)
           (-30.0 30.0)
  end
  begin
     id 15 
     name upperneck
     direction 0.210059 0.976535 0.0474817   
     length 1.39882   
     axis 0 0 0   XYZ
    dof rx ry rz
    limits (-20.0 45.0)
           (-30.0 30.0)
           (-30.0 30.0)
  end
  begin
     id 16
     name head
     direction 0.0780891 0.996944 -0.00207154  
     length 1.41828  
     axis 0 0 0   XYZ
    dof rx ry rz
    limits (-20.0 45.0)
           (-30.0 30.0)
           (-30.0 30.0)
  end
  begin
     id 17 
     name lclavicle
     direction 0.982414 0.166355 -0.0847829  
     length 3.57922  
     axis 0 0 0   XYZ
    dof ry rz
    limits (-20.0 10.0)
           (0.0 20.0)
  end
  begin
     id 18 
     name lhumerus
     direction 1 -4.48975e-011 5.47647e-028   
     length 4.76405   
     axis -180 -30 -90   XYZ
    dof rx ry rz
    limits (-60.0 90.0)
           (-90.0 90.0)
           (-90.0 90.0)
  end
  begin
     id 19
     name lradius
     direction 1 -4.48949e-011 -8.32142e-027   
     length 3.13759   
     axis -180 -30 -90   XYZ
    dof rx
    limits (-10.0 170.0)
  end
  begin
     id 20
     name lwrist
     direction 1 -4.48978e-011 -1.32705e-026   
     length 1.56879   
     axis 9.60836e-015 90 90   XYZ
    dof ry
    limits (-180.0 0.0)
 end
  begin
     id 21 
     name lhand
     direction 1 -4.48975e-011 -2.65409e-026   
     length 0.732262   
     axis 1.69354e-014 90 90   XYZ
    dof rx rz
    limits (-90.0 90.0)
           (-45.0 45.0)
  end
  begin
     id 22 
     name lfingers
     direction 1 -4.48923e-011 -5.30819e-026   
     length 0.590368   
     axis 3.38708e-014 90 90   XYZ
    dof rx
    limits (0.0 90.0)
  end
  begin
     id 23
     name lthumb
     direction 0.707107 -6.34914e-011 0.707107   
     length 0.847654   
     axis -90 45 2.85299e-015   XYZ
    dof rx rz
    limits (-45.0 45.0)
           (-45.0 45.0)
  end
  begin
     id 24 
     name rclavicle
     direction -0.963658 0.245183 -0.106063   
     length 3.43472  
     axis 0 0 0   XYZ 
    dof ry rz
    limits (-10.0 20.0)
           (-20.0 0.0)
  end
  begin
     id 25 
     name rhumerus
     direction -1 -4.48963e-011 -1.64784e-027  
     length 5.10161   
     axis -180 30 90   XYZ
    dof rx ry rz
    limits (-90.0 60.0)
           (-90.0 90.0)
           (-90.0 90.0)
  end
  begin
     id 26 
     name rradius
     direction -1 -4.48969e-011 -2.87943e-027   
     length 3.23267   
     axis -180 30 90   XYZ
    dof rx
    limits (-10.0 170.0)
  end
  begin
     id 27 
     name rwrist
     direction -1 -4.48982e-011 -1.32705e-026   
     length 1.61633   
     axis 9.60836e-015 -90 -90   XYZ
    dof ry
    limits (-180.0 0.0)
  end
  begin
     id 28
     name rhand
     direction -1 -4.48963e-011 -2.65409e-026   
     length 0.702   
     axis 1.69354e-014 -90 -90   XYZ
    dof rx rz
    limits (-90.0 90.0)
           (-45.0 45.0)
  end
  begin
     id 29
     name rfingers
     direction -1 -4.48934e-011 -5.30819e-026   
     length 0.565971   
     axis 3.38708e-014 -90 -90   XYZ
    dof rx
    limits (0.0 90.0)
  end
  begin
     id 30
     name rthumb
     direction -0.707107 -6.34908e-011 0.707107   
     length 0.812624   
     axis -90 -45 -2.85299e-015   XYZ
    dof rx rz
    limits (-45.0 45.0)
           (-45.0 45.0)
  end
:hierarchy
  begin
    root lhipjoint rhipjoint lowerback
    lhipjoint lfemur
    lfemur ltibia
    ltibia lfoot
    lfoot ltoes
    rhipjoint rfemur
    rfemur rtibia
    rtibia rfoot
    rfoot rtoes
    lowerback upperback
    upperback thorax
    thorax lowerneck lclavicle rclavicle
    lowerneck upperneck
    upperneck head
    lclavicle lhumerus
    lhumerus lradius
    lradius lwrist
    lwrist lhand lthumb
    lhand lfingers
    rclavicle rhumerus
    rhumerus rradius
    rradius rwrist
    rwrist rhand rthumb
    rhand rfingers
  end

#!OML:ASF \\sashay\E\basketball\basketball\Project 1\Capture day 1\Session 1\Subject.ASF
:FULLY-SPECIFIED
:DEGREES
18
root -23.2586 12.5425 10.8806 -9.03217 24.9553 -5.90092
lowerback 29.9496 3.38598 1.06763
upperback 14.7427 5.10379 3.33961
thorax 0.0193138 2.6363 1.59691
lowerneck -0.0466431 -14.0213 -8.15702
upperneck -20.4959 -15.1883 32.3837
head -2.27426 -9.12989 11.7197
rclavicle -4.6118e-014 4.77083e-014
rhumerus 10.1922 19.297 -50.1733
rradius 69.3318
rwrist -41.9829
rhand 31.644 7.73941
rfingers 7.12502
rthumb 55.1786 -10.2693
lclavicle -4.6118e-014 4.77083e-014
lhumerus -42.4806 -19.8198 107.736
lradius 34.0508
lwrist -53.8702
lhand 25.6562 12.4231
lfingers 7.12502
lthumb 49.7629 33.7694
rfemur -19.5201 -2.43741 -7.9405
rtibia 63.027
rfoot -25.5159 3.09053
rtoes 56.2698
lfemur -54.4759 27.8066 -13.3488
ltibia 87.3681
lfoot -18.7374 1.29409
ltoes -25.6
19
root -22.772 12.5973 10.7695 -9.20682 23.0002 -6.36052
lowerback 29.7014 2.61889 1.2229
upperback 14.5103 4.11962 3.0367
thorax -0.0792631 2.1457 1.46142
lowerneck 0.983406 -14.8561 -7.03329
upperneck -21.1426 -16.1941 32.7845
head -2.51781 -9.87821 11.7226
rclavicle -7.95139e-016 1.76918e-014
rhumerus 8.50091 19.6748 -51.1133
rradius 71.0517
rwrist -44.2344
rhand 34.4477 7.13275
rfingers 7.12502
rthumb 57.655 -8.89424
lclavicle -7.95139e-016 1.76918e-014
lhumerus -43.392 -19.5773 106.101
lradius 32.7023
lwrist -39.5824
lhand 19.5765 16.5745
lfingers 7.12502
lthumb 44.1404 40.4049
rfemur -22.2232 -3.53478 -6.26245
rtibia 66.3544
rfoot -23.6874 3.30005
rtoes 53.92
lfemur -53.9789 28.7284 -14.5485
ltibia 88.3686
lfoot -19.9759 2.74899
ltoes -24.0265
20
root -22.2703 12.6799 10.6521 -9.38946 21.0881 -6.62929
lowerback 29.7661 1.92079 2.48632
upperback 14.2554 3.48644 2.08973
thorax -0.247006 1.91882 -0.12238
lowerneck 1.76573 -16.1919 -4.82645
upperneck -22.1243 -17.6743 33.3718
head -2.84313 -10.958 11.6091
rclavicle -3.80176e-014 1.37658e-014
rhumerus 5.19176 18.206 -53.2604
rradius 72.7158
rwrist -45.1962
rhand 37.2067 8.04856
rfingers 7.12502
rthumb 60.0421 -5.68744
lclavicle -3.80176e-014 1.37658e-014
lhumerus -47.1683 -24.6698 107.814
lradius 33.6626
lwrist -14.6777
lhand 5.18943 28.8055
lfingers 7.12502
lthumb 30.5506 56.2917
rfemur -25.2836 -6.04459 -3.96368
rtibia 69.7066
rfoot -20.4631 -6.5408
rtoes 20.6495
lfemur -53.8454 29.5977 -16.0689
ltibia 89.4587
lfoot -20.4046 4.48041
ltoes -22.9549
21
root -21.8203 12.7652 10.5672 -9.56351 19.1632 -6.87748
lowerback 29.6137 1.06849 1.27185
upperback 14.0785 2.08624 2.65589
thorax -0.468025 1.11061 1.58828
lowerneck 3.15409 -16.576 -7.05058
upperneck -22.7932 -18.3251 34.376
head -2.72815 -11.3763 12.3758
rclavicle -9.96408e-015 -3.95581e-014
rhumerus 4.30588 20.13 -52.537
rradius 74.5425
rwrist -47.2124
rhand 39.3618 8.61752
rfingers 7.12502
rthumb 61.8641 -3.04458
lclavicle -9.96408e-015 -3.95581e-014
lhumerus -49.5841 -23.0735 109.606
lradius 35.3673
lwrist 9.29309
lhand -11.4439 33.3757
lfingers 7.12502
lthumb 14.5928 62.8423
rfemur -27.8172 -7.22949 -1.58927
rtibia 72.9244
rfoot -17.4616 -9.99473
rtoes -12.7344
lfemur -53.2688 30.5412 -17.1678
ltibia 90.0818
lfoot -20.0194 5.00739
ltoes -18.2283
22
root -21.3616 12.8576 10.465 -9.00883 17.3917 -6.09394
lowerback 29.2996 0.478552 0.384515
upperback 13.8651 1.05952 2.26399
thorax -0.555384 0.553872 1.96011
lowerneck 4.70474 -17.4556 -7.58962
upperneck -24.2951 -19.2441 36.2284
head -2.89448 -12.1982 13.2842
rclavicle 1.87852e-014 -2.127e-014
rhumerus 2.04199 19.9379 -53.0616
rradius 76.56
rwrist -49.6658
rhand 41.0481 8.34831
rfingers 7.12502
rthumb 63.2582 -1.48558
lclavicle 1.87852e-014 -2.127e-014
lhumerus -49.697 -20.5403 107.418
lradius 34.8561
lwrist 24.1153
lhand -15.6586 33.6654
lfingers 7.12502
lthumb 10.5295 63.3817
rfemur -30.4094 -7.78488 -0.64706
rtibia 75.9691
rfoot -16.9982 -8.25509
rtoes -18.0278
lfemur -53.1061 31.0944 -19.6211
ltibia 90.4528
lfoot -19.1404 6.02244
ltoes -18.601
